# xmcd CD database file
#
# Track frame offsets:
#	150
#	22572
#	56274
#	85463
#	111685
#	144751
#	162928
#	185495
#	202531
#	214391
#	232020
#	251820
#	286752
#	303962
#
# Disc length: 4322 seconds
#
# Revision: 0
# Processed by: cddbd v1.5.2PL0 Copyright (c) Steve Scherf et al.
# Submitted via: CDex 1.51
#
DISCID=ba10e00e
DTITLE=V,A - Jazz
DYEAR=1900
DGENRE=Jazz
TTITLE0=BILL EVANS - MY FOOLISH HEART
TTITLE1=Grover Washington, Jr - Just the Two of Us
TTITLE2=Crusaders - Soul Shadows
TTITLE3=Crusaders - Better Not Look Down
TTITLE4=Crusaders - Burnin' Up the Carnival
TTITLE5=Funk Brothers - Chaka Khan - What's Going On
TTITLE6=Funk Brothers - Chaka Khan And Montell Jordan - Ain't No Mountain High Enough
TTITLE7=Nat King Cole - (GET YOUR KICKS ON) ROUTE 66!
TTITLE8=Nat King Cole - L-O-V-E
TTITLE9=Tom Waits - Somewhere
TTITLE10=Tom Waits - Closing Time
TTITLE11=Marcus Miller - Your Amazing Grace
TTITLE12=Stevie Wonder - Stevie Wonder - Redemption Song
TTITLE13=2Pac - Changes
EXTD=
EXTT0=
EXTT1=
EXTT2=
EXTT3=
EXTT4=
EXTT5=
EXTT6=
EXTT7=
EXTT8=
EXTT9=
EXTT10=
EXTT11=
EXTT12=
EXTT13=
PLAYORDER=
